<svg width="24" height="25" viewBox="0 0 24 25" fill="none" xmlns="http://www.w3.org/2000/svg">
<path d="M24 12.488C24 5.87 18.624 0.5 12 0.5C5.376 0.5 0 5.87 0 12.488C0 16.133 1.656 19.418 4.248 21.623C4.272 21.647 4.296 21.647 4.296 21.671C4.512 21.839 4.728 22.007 4.968 22.175C5.088 22.247 5.184 22.3415 5.304 22.4375C7.28791 23.7804 9.62834 24.4987 12.024 24.5C14.4197 24.4987 16.7601 23.7804 18.744 22.4375C18.864 22.3655 18.96 22.271 19.08 22.1975C19.296 22.031 19.536 21.863 19.752 21.695C19.776 21.671 19.8 21.671 19.8 21.647C22.344 19.4165 24 16.133 24 12.488ZM12 22.9895C9.744 22.9895 7.68 22.2695 5.976 21.071C6 20.879 6.048 20.6885 6.096 20.4965C6.23948 19.9763 6.4492 19.4767 6.72 19.01C6.984 18.554 7.296 18.146 7.68 17.786C8.04 17.426 8.472 17.0915 8.904 16.8275C9.36 16.5635 9.84 16.3715 10.368 16.2275C10.9003 16.0849 11.449 16.0128 12 16.013C13.6361 16.0006 15.2123 16.6283 16.392 17.762C16.944 18.314 17.376 18.9615 17.688 19.7045C17.856 20.1365 17.976 20.592 18.048 21.071C16.2768 22.3162 14.1652 22.9861 12 22.9895ZM8.328 11.8895C8.11697 11.4052 8.01065 10.8818 8.016 10.3535C8.016 9.827 8.112 9.299 8.328 8.819C8.544 8.339 8.832 7.9085 9.192 7.5485C9.552 7.1885 9.984 6.902 10.464 6.686C10.944 6.47 11.472 6.374 12 6.374C12.552 6.374 13.056 6.47 13.536 6.686C14.016 6.902 14.448 7.19 14.808 7.5485C15.168 7.9085 15.456 8.3405 15.672 8.819C15.888 9.299 15.984 9.827 15.984 10.3535C15.984 10.9055 15.888 11.4095 15.672 11.888C15.4647 12.3616 15.1718 12.7928 14.808 13.16C14.4407 13.5233 14.0094 13.8157 13.536 14.0225C12.5441 14.4293 11.4319 14.4293 10.44 14.0225C9.96656 13.8157 9.53534 13.5233 9.168 13.16C8.80387 12.798 8.51796 12.3665 8.328 11.8895ZM19.464 19.8485C19.464 19.8005 19.44 19.7765 19.44 19.7285C19.2044 18.9775 18.8564 18.2664 18.408 17.6195C17.9592 16.9679 17.4081 16.393 16.776 15.917C16.2931 15.5536 15.7696 15.2475 15.216 15.005C15.4667 14.8373 15.6998 14.6448 15.912 14.4305C16.2698 14.0773 16.584 13.6824 16.848 13.2545C17.3814 12.382 17.656 11.376 17.64 10.3535C17.6478 9.59673 17.5008 8.84636 17.208 8.1485C16.9193 7.47598 16.5037 6.86536 15.984 6.35C15.4638 5.84157 14.8534 5.43462 14.184 5.15C13.4851 4.85728 12.7337 4.71077 11.976 4.7195C11.2182 4.71125 10.4668 4.85827 9.768 5.1515C9.09127 5.43264 8.47883 5.84859 7.968 6.374C7.45692 6.89145 7.0496 7.50193 6.768 8.1725C6.47517 8.87036 6.32816 9.62073 6.336 10.3775C6.336 10.9055 6.408 11.409 6.552 11.888C6.696 12.392 6.888 12.848 7.152 13.2785C7.392 13.7105 7.728 14.0945 8.088 14.4545C8.304 14.6705 8.544 14.862 8.808 15.029C8.25195 15.2765 7.72809 15.5909 7.248 15.965C6.624 16.445 6.072 17.0195 5.616 17.6435C5.16341 18.288 4.81514 18.9997 4.584 19.7525C4.56 19.8005 4.56 19.8485 4.56 19.8725C2.664 17.954 1.488 15.365 1.488 12.488C1.488 6.71 6.216 1.9865 12 1.9865C17.784 1.9865 22.512 6.71 22.512 12.488C22.5089 15.2479 21.413 17.8943 19.464 19.8485Z" fill="#C4E91F"/>
</svg>
