<svg width="38" height="20" viewBox="0 0 38 20" fill="none" xmlns="http://www.w3.org/2000/svg">
<path d="M18.9334 0.108765H18.9342V0.109557C23.7037 0.109557 28.0249 1.20718 31.155 2.98151C34.3116 4.77088 36.2649 7.25162 36.2649 9.99963H36.2657V10.0004H36.2649C36.2649 12.7484 34.3116 15.2296 31.1546 17.0189C28.0248 18.7929 23.7041 19.8905 18.935 19.8905V19.8913H18.933V19.8905C14.1632 19.8905 9.84204 18.7933 6.71231 17.0189C3.55526 15.2292 1.60235 12.7484 1.60196 10.0004C1.60196 7.25241 3.55526 4.77088 6.71231 2.98151C9.84204 1.20757 14.1632 0.109953 18.9323 0.109557V0.108765H18.9334ZM18.9342 0.420787V0.421579H18.9323V0.420787C14.2191 0.420787 9.9533 1.50336 6.86713 3.25235C3.80868 4.98668 1.91596 7.37278 1.91596 9.99963H1.91675V10.0004H1.91596C1.91596 12.6277 3.80868 15.0142 6.86753 16.7477C9.9537 18.4971 14.2195 19.5793 18.9334 19.5793L18.935 19.5789C23.6486 19.5789 27.9144 18.4971 31.0001 16.7481C34.0594 15.0138 35.9517 12.6277 35.9517 10.0008L35.9513 10C35.9513 7.37278 34.059 4.98629 31.0005 3.25274C27.914 1.50336 23.6478 0.421183 18.9342 0.420787Z" fill="#0C54A0"/>
<path fill-rule="evenodd" clip-rule="evenodd" d="M22.3373 1.5636C26.1679 2.04034 29.4587 3.32328 31.6187 5.07979C30.9686 5.27342 30.0733 5.45794 28.9844 5.62503C27.5145 3.94534 25.4048 2.6438 23.2626 1.86651C22.9575 1.75576 22.6489 1.65474 22.3373 1.5636ZM31.9957 5.40092C33.4042 6.66326 34.2468 8.14497 34.322 9.73478H30.9325C30.7741 8.38295 30.1889 7.1408 29.3308 6.04397C30.4261 5.86301 31.3305 5.64642 31.9957 5.40092ZM34.322 10.202C34.2531 11.6521 33.5455 13.013 32.3521 14.1989C31.7423 13.9756 30.9325 13.7756 29.9588 13.605C30.5956 12.6515 30.9749 11.5835 30.9749 10.4127C30.9749 10.3446 30.9733 10.2741 30.9705 10.202H34.322ZM32.0032 14.528C29.8915 16.4246 26.502 17.826 22.5131 18.3502C23.9952 17.9361 25.5414 17.2902 26.8964 16.4401C27.9762 15.7622 28.9372 14.9536 29.6547 14.0267C30.6177 14.1823 31.414 14.3514 32.0032 14.528ZM14.8891 18.2596C11.127 17.6688 7.949 16.2904 5.95293 14.4606C6.5944 14.2864 7.43702 14.1201 8.44119 13.9681C9.02207 14.756 9.76174 15.483 10.6182 16.1233C11.8429 17.0384 13.3088 17.7765 14.8891 18.2596ZM5.59933 14.1189C4.4538 12.9516 3.7763 11.6196 3.70898 10.202H7.04342C7.07629 11.3701 7.47344 12.5018 8.1454 13.5408C7.12262 13.7051 6.26178 13.8996 5.59933 14.1189ZM3.70898 9.73478C3.78105 8.21308 4.55635 6.78997 5.85829 5.56406C6.52985 5.766 7.37366 5.94458 8.35883 6.09584C8.02318 6.56482 7.74345 7.07139 7.52532 7.60527C7.24939 8.28365 7.08892 9.00343 7.05055 9.73478H3.70898ZM6.24793 5.216C8.32675 3.45395 11.5289 2.14725 15.2791 1.61824C12.7909 2.33732 10.2634 3.71885 8.68233 5.67057L8.56117 5.65275C7.65361 5.51733 6.87276 5.37043 6.24793 5.216ZM28.6193 6.15246C26.1219 6.50685 22.7701 6.72899 19.0705 6.74364V9.73478H30.3002C30.1291 8.41779 29.5126 7.21009 28.6193 6.15246ZM18.5981 6.74443C14.9343 6.74127 11.5947 6.53457 9.06404 6.19641C8.67006 6.70484 8.34457 7.25246 8.10818 7.8373C7.86743 8.43125 7.71776 9.0648 7.67895 9.73478H18.5981V6.74443ZM9.41883 5.77035C11.8964 6.08396 15.0994 6.27442 18.5981 6.27719V1.6812C15.5864 1.80553 11.66 3.24923 9.41883 5.77035ZM19.0705 6.2764C22.5911 6.26254 25.7956 6.05862 28.2411 5.73195C26.8648 4.28271 24.9712 3.15024 23.0484 2.45255C22.3709 2.20532 21.6752 2.01123 20.9676 1.87206C20.306 1.74416 19.6661 1.67526 19.0705 1.6713V6.2764ZM30.341 10.202H19.0705V12.851C23.0156 12.859 26.582 13.0977 29.1748 13.4794L29.2714 13.4937C29.9406 12.5762 30.3453 11.544 30.3453 10.4131C30.3453 10.341 30.3437 10.2705 30.341 10.202ZM18.5981 10.202H7.67341C7.70905 11.3341 8.12877 12.4337 8.83082 13.4383C11.3856 13.0823 14.8163 12.8609 18.5981 12.8514V10.202ZM28.9361 13.9178C26.3741 13.5531 22.9015 13.3262 19.0705 13.3183V18.2639C19.2543 18.2627 19.4408 18.2556 19.6288 18.2425C21.6827 18.1004 24.3785 17.2835 26.5622 15.9127C27.4738 15.3405 28.2942 14.6721 28.9361 13.9178ZM18.5981 13.3183C14.9679 13.3278 11.6624 13.5337 9.15235 13.8671C9.66196 14.5034 10.2848 15.095 10.9944 15.6252C13.0285 17.1457 15.761 18.155 18.5522 18.2568L18.5981 18.258V13.3183Z" fill="#0C54A0"/>
<path fill-rule="evenodd" clip-rule="evenodd" d="M19.0092 2.79456C19.5818 2.79456 20.1389 2.8591 20.6739 2.98225V17.2284C20.1279 17.3537 19.5694 17.4167 19.0092 17.4164C18.4675 17.4165 17.9273 17.3572 17.3984 17.2398V2.97037C17.9274 2.85323 18.4675 2.79428 19.0092 2.79456Z" fill="#0C54A0"/>
<path d="M19.0086 2.42432L19.009 2.4255C21.0574 2.42164 23.0238 3.23049 24.4765 4.6746C25.8751 6.06365 26.7403 7.9837 26.7407 10.1049H26.7419V10.1057H26.7407C26.7407 12.2273 25.8751 14.1473 24.4765 15.5368C23.0238 16.9807 21.0577 17.7894 19.0094 17.7855V17.7867H19.0086V17.7855C16.9599 17.7896 14.9933 16.9807 13.5403 15.5364C12.1422 14.1473 11.277 12.2273 11.277 10.1061H11.2754V10.1053H11.277C11.277 7.9837 12.1422 6.06365 13.5407 4.6742C14.9936 3.23024 16.9599 2.42154 19.0082 2.4255L19.0086 2.42432ZM19.009 3.04836V3.04955H19.0082V3.04836C17.0482 3.04836 15.2719 3.83871 13.9858 5.1165C12.6997 6.39389 11.9038 8.15792 11.9038 10.1053H11.905V10.1061H11.9038C11.9038 12.0534 12.6997 13.8171 13.9858 15.0945C15.3201 16.4217 17.1263 17.1654 19.0082 17.1626V17.1614H19.0094V17.1626C20.9695 17.1626 22.7454 16.3723 24.0315 15.0949C25.3176 13.8171 26.1135 12.0531 26.1135 10.1057H26.1123V10.1049H26.1135C26.1135 8.15792 25.3176 6.39389 24.0315 5.1165C22.6972 3.78924 20.891 3.04547 19.009 3.04836Z" fill="#FEFEFE"/>
<path d="M19.0074 16.5457C22.5884 16.5457 25.4914 13.6623 25.4914 10.1053C25.4914 6.54839 22.5884 3.66492 19.0074 3.66492C15.4264 3.66492 12.5234 6.54839 12.5234 10.1053C12.5234 13.6623 15.4264 16.5457 19.0074 16.5457Z" fill="#FEFEFE"/>
<path fill-rule="evenodd" clip-rule="evenodd" d="M14.5926 10.0507C15.2083 9.99026 15.829 10.0028 16.4418 10.088L18.1144 7.35776C17.6685 7.26588 17.2303 7.13986 16.8037 6.9808L17.7786 5.46899C18.5666 5.96554 20.4387 6.0669 23.1285 5.8705L22.5322 6.19916C22.7167 8.82125 22.2629 11.4433 20.6723 14.0658L19.8475 14.3494C20.9016 12.5572 21.6238 10.419 21.3455 7.24055C20.4427 7.50783 19.5406 7.56287 18.6378 7.44527L16.9581 10.1719C18.0443 10.3786 19.1522 10.7765 20.2756 11.3067L19.3007 14.68C17.6166 13.1017 15.6661 12.0302 13.2852 11.7748L14.5926 10.0507Z" fill="#009846"/>
<path fill-rule="evenodd" clip-rule="evenodd" d="M0 9.69702H1.72523V10.3666H0V9.69702ZM36.1779 9.69702H38V10.3666H36.1779V9.69702Z" fill="#0C54A0"/>
</svg>
