<svg width="16" height="17" viewBox="0 0 16 17" fill="none" xmlns="http://www.w3.org/2000/svg">
<path fill-rule="evenodd" clip-rule="evenodd" d="M7.9996 10.622L13.3026 15.925C13.584 16.2064 13.9657 16.3645 14.3636 16.3645C14.7616 16.3645 15.1432 16.2064 15.4246 15.925C15.706 15.6436 15.8641 15.2619 15.8641 14.864C15.8641 14.466 15.706 14.0844 15.4246 13.803L10.1196 8.49999L15.4236 3.19699C15.5629 3.05766 15.6733 2.89226 15.7487 2.71024C15.824 2.52821 15.8628 2.33313 15.8627 2.13613C15.8627 1.93914 15.8238 1.74407 15.7484 1.56209C15.673 1.3801 15.5624 1.21475 15.4231 1.07549C15.2838 0.936221 15.1184 0.825762 14.9364 0.750416C14.7543 0.675071 14.5592 0.636315 14.3623 0.636361C14.1653 0.636408 13.9702 0.675255 13.7882 0.750687C13.6062 0.826118 13.4409 0.936656 13.3016 1.07599L7.9996 6.37899L2.6966 1.07599C2.5583 0.932659 2.39284 0.818309 2.20987 0.739611C2.0269 0.660912 1.83009 0.619441 1.63092 0.617617C1.43176 0.615793 1.23422 0.653652 1.04984 0.728987C0.865462 0.804321 0.697932 0.915622 0.557027 1.05639C0.416123 1.19717 0.304664 1.36459 0.229156 1.5489C0.153648 1.73321 0.115602 1.93071 0.117238 2.12988C0.118874 2.32905 0.16016 2.52589 0.238686 2.70894C0.317212 2.89198 0.431406 3.05755 0.574604 3.19599L5.8796 8.49999L0.575604 13.804C0.432406 13.9424 0.318212 14.108 0.239686 14.291C0.16116 14.4741 0.119874 14.6709 0.118238 14.8701C0.116602 15.0693 0.154648 15.2668 0.230156 15.4511C0.305664 15.6354 0.417122 15.8028 0.558027 15.9436C0.698932 16.0844 0.866462 16.1957 1.05084 16.271C1.23522 16.3463 1.43276 16.3842 1.63192 16.3824C1.83109 16.3805 2.0279 16.3391 2.21087 16.2604C2.39384 16.1817 2.5593 16.0673 2.6976 15.924L7.9996 10.622Z" fill="#333333"/>
</svg>
