<svg width="24" height="25" viewBox="0 0 24 25" fill="none" xmlns="http://www.w3.org/2000/svg">
<path d="M13 4.5H6C5.46957 4.5 4.96086 4.71071 4.58579 5.08579C4.21071 5.46086 4 5.96957 4 6.5V18.5C4 19.0304 4.21071 19.5391 4.58579 19.9142C4.96086 20.2893 5.46957 20.5 6 20.5H13M17 4.5H18C18.5304 4.5 19.0391 4.71071 19.4142 5.08579C19.7893 5.46086 20 5.96957 20 6.5V7.5M20 17.5V18.5C20 19.0304 19.7893 19.5391 19.4142 19.9142C19.0391 20.2893 18.5304 20.5 18 20.5H17M20 11.5V13.5M12 2.5V22.5" stroke="#333333" stroke-width="1.5" stroke-linecap="round" stroke-linejoin="round"/>
<rect x="15" y="16" width="8" height="8" rx="4" fill="#C4E91F"/>
<path d="M19.4727 18.6562V21.5H18.8145V19.3984L18.166 19.5879V19.0879L19.4121 18.6562H19.4727Z" fill="#333333"/>
</svg>
