<svg width="20" height="16" viewBox="0 0 20 16" fill="none" xmlns="http://www.w3.org/2000/svg">
<path d="M16.6004 0.299988C17.396 0.299988 18.1591 0.616058 18.7217 1.17867C19.2843 1.74128 19.6004 2.50434 19.6004 3.29999V12.9C19.6004 13.6956 19.2843 14.4587 18.7217 15.0213C18.1591 15.5839 17.396 15.9 16.6004 15.9H3.40039C2.60474 15.9 1.84168 15.5839 1.27907 15.0213C0.716461 14.4587 0.400391 13.6956 0.400391 12.9V3.29999C0.400391 2.50434 0.716461 1.74128 1.27907 1.17867C1.84168 0.616058 2.60474 0.299988 3.40039 0.299988H16.6004ZM18.4004 5.05319L10.3052 9.81719C10.2287 9.86212 10.1431 9.88952 10.0547 9.8974C9.96631 9.90529 9.87727 9.89347 9.79399 9.86279L9.69559 9.81719L1.60039 5.05559V12.9C1.60039 13.3774 1.79003 13.8352 2.1276 14.1728C2.46516 14.5103 2.923 14.7 3.40039 14.7H16.6004C17.0778 14.7 17.5356 14.5103 17.8732 14.1728C18.2107 13.8352 18.4004 13.3774 18.4004 12.9V5.05319ZM16.6004 1.49999H3.40039C2.923 1.49999 2.46516 1.68963 2.1276 2.0272C1.79003 2.36476 1.60039 2.8226 1.60039 3.29999V3.66239L10.0004 8.60399L18.4004 3.65999V3.29999C18.4004 2.8226 18.2107 2.36476 17.8732 2.0272C17.5356 1.68963 17.0778 1.49999 16.6004 1.49999Z" fill="#0070C9"/>
</svg>
