<svg width="12" height="13" viewBox="0 0 12 13" fill="none" xmlns="http://www.w3.org/2000/svg">
<path d="M5.0617 1.54588C5.38317 0.67364 6.61683 0.673638 6.9383 1.54588L7.72492 3.6802C7.86487 4.05993 8.21989 4.31787 8.62428 4.33363L10.8972 4.42221C11.8261 4.45841 12.2073 5.63169 11.4771 6.20696L9.69034 7.61462C9.37245 7.86507 9.23684 8.28242 9.34682 8.67189L9.96495 10.861C10.2176 11.7556 9.21952 12.4807 8.44675 11.964L6.55584 10.6997C6.21942 10.4747 5.78058 10.4747 5.44416 10.6997L3.55325 11.964C2.78049 12.4807 1.78243 11.7556 2.03505 10.861L2.65318 8.67189C2.76316 8.28242 2.62755 7.86507 2.30966 7.61462L0.522875 6.20696C-0.207338 5.63169 0.173882 4.45841 1.10278 4.42221L3.37572 4.33363C3.78011 4.31787 4.13513 4.05993 4.27508 3.6802L5.0617 1.54588Z" fill="#FF9508"/>
</svg>
